PathFileType	4	(X/Y/Z)	C:\Users\Basilio\Documents\Thesis Gigler\squatting_fais\c3dfiles\041\SJ_pre1\markers_experimental.trc
DataRate	CameraRate	NumFrames	NumMarkers	Units	OrigDataRate	OrigDataStartFrame	OrigNumFrames
200.000000	200.000000	4	62	mm	200.000000	635	1270
Frame#	Time	FHD			LBHD			RBHD			C7			T10			CLAV			LSHO			LUUPA			LMUPA			LDUPA			LLEP			LMEP			LRAD			LUL			LRFIN			RSHO			RUPA1			RMUPA			RDUPA			RLEP			RMEP			RRAD			RUL			RUFIN			LASI			RASI			USACR			LSACR			RSACR			LTHI1			LTHI2			LTHI3			LTHI4			LLFC			LMFC			LTIB1			LTIB2			LTIB3			LTIB4			LLMAL			LMMAL			LHEE			LMT1			LMT2			LMT5			RTHI			RTHI2			RTHI3			RTHI4			RLFC			RMFC			RTIB1			RTIB2			RTIB3			RTIB4			RLMAL			RMMAL			RHEE			RMT1			RMT2			RMT5			*61			
		X1	Y1	Z1	X2	Y2	Z2	X3	Y3	Z3	X4	Y4	Z4	X5	Y5	Z5	X6	Y6	Z6	X7	Y7	Z7	X8	Y8	Z8	X9	Y9	Z9	X10	Y10	Z10	X11	Y11	Z11	X12	Y12	Z12	X13	Y13	Z13	X14	Y14	Z14	X15	Y15	Z15	X16	Y16	Z16	X17	Y17	Z17	X18	Y18	Z18	X19	Y19	Z19	X20	Y20	Z20	X21	Y21	Z21	X22	Y22	Z22	X23	Y23	Z23	X24	Y24	Z24	X25	Y25	Z25	X26	Y26	Z26	X27	Y27	Z27	X28	Y28	Z28	X29	Y29	Z29	X30	Y30	Z30	X31	Y31	Z31	X32	Y32	Z32	X33	Y33	Z33	X34	Y34	Z34	X35	Y35	Z35	X36	Y36	Z36	X37	Y37	Z37	X38	Y38	Z38	X39	Y39	Z39	X40	Y40	Z40	X41	Y41	Z41	X42	Y42	Z42	X43	Y43	Z43	X44	Y44	Z44	X45	Y45	Z45	X46	Y46	Z46	X47	Y47	Z47	X48	Y48	Z48	X49	Y49	Z49	X50	Y50	Z50	X51	Y51	Z51	X52	Y52	Z52	X53	Y53	Z53	X54	Y54	Z54	X55	Y55	Z55	X56	Y56	Z56	X57	Y57	Z57	X58	Y58	Z58	X59	Y59	Z59	X60	Y60	Z60	X61	Y61	Z61	X62	Y62	Z62	

636	3.175	52.55585098266603	1252.1181640625	-882.4282226562502	-126.2511367797852	1196.124877929688	-962.4051513671877	-107.7101058959961	1195.96923828125	-808.7030029296877	-187.2750549316407	1108.359252929688	-893.9083251953127	-408.0626831054689	902.594177246094	-895.752380371094	-81.90723419189455	969.7153320312502	-893.497741699219	-111.8273239135742	1052.702514648438	-1062.146728515625	-226.9486999511719	992.717468261719	-1210.890747070313	-245.1447296142579	947.5801391601565	-1211.9755859375	-277.7544860839844	973.9455566406252	-1255.660522460938	-319.2994689941407	950.620788574219	-1282.378295898438	-390.6566772460939	975.043151855469	-1228.3603515625	-426.0820312500001	782.123962402344	-1100.317504882813	-438.1538391113282	731.6622924804689	-1156.256958007813	-394.8141479492189	740.1739501953126	-1062.873046875	-98.39002227783206	1042.100341796875	-724.6553955078126	-207.6499633789063	960.5173339843752	-549.3812866210939	-202.3737182617188	912.0070800781252	-563.8112792968751	-238.8149719238282	903.2097778320315	-519.2160034179689	-271.5580139160157	866.9301757812502	-504.686737060547	-345.4637145996094	919.051940917969	-531.8795776367189	-457.337371826172	773.2117919921877	-666.1430664062501	-416.8368225097657	755.6705932617189	-712.2852783203126	-444.5109863281251	705.6415405273439	-627.0374755859376	-379.6219177246094	678.4682006835939	-996.5903320312502	-390.6118774414064	691.3862304687501	-781.4407348632815	-506.9238891601564	825.8548583984377	-898.0015258789065	-536.3874511718751	813.3204345703127	-926.087585449219	-537.8671875000001	813.022888183594	-869.9495239257815	-448.6297912597657	580.7407836914064	-1108.288696289063	-363.9752197265626	573.5266113281251	-1120.963500976563	-338.6121826171876	611.7937011718751	-1106.529296875	-332.8156127929688	522.2607421875001	-1127.666748046875	-182.0908966064453	446.9341125488282	-1140.153198242188	-159.0533447265625	417.8179931640626	-1035.02978515625	-214.0961914062501	262.9234924316407	-1105.841186523438	-285.7142028808594	254.2962036132813	-1165.015747070313	-252.5294494628907	235.5717773437501	-1142.491821289063	-284.6953735351563	160.88232421875	-1115.0869140625	-385.6396789550782	102.7795715332032	-1154.821411132813	-338.0818481445313	98.80253601074222	-1076.918090820313	-448.1683044433595	55.44933319091798	-1115.6357421875	-231.7567749023438	56.77211761474611	-1120.024780273438	-229.9319152832032	58.70067977905275	-1164.818969726563	-279.3351135253907	38.36214828491212	-1215.30029296875	-398.3898925781251	557.9231567382814	-680.4541015625001	-332.0723571777344	563.0873413085939	-673.5249633789064	-314.1364440917969	590.2719116210939	-681.3988647460939	-279.1216430664063	495.3713684082032	-672.3577270507814	-192.0198364257813	437.2728881835939	-666.1593627929689	-168.2415924072266	418.1222534179689	-776.291442871094	-211.4468994140626	280.9281005859376	-672.7389526367189	-320.7293395996094	247.0585479736329	-658.9488525390626	-278.1061096191407	226.4277038574219	-661.5463867187501	-279.6156616210938	174.3424835205078	-688.3359985351564	-380.7939758300782	93.62191009521486	-673.5286865234376	-346.3852539062501	99.95083618164065	-753.5960693359376	-444.2986450195314	50.40998458862306	-722.5889892578126	-225.7483215332032	51.9639358520508	-712.2113037109376	-229.1351623535157	56.57253265380861	-661.0432128906251	-275.5118408203126	37.24627304077149	-614.5424804687501	-4216.902343750001	853.099548339844	-3944.563964843751	
637	3.18	52.53537750244142	1252.108642578125	-882.377136230469	-126.1959609985352	1196.29833984375	-962.351013183594	-107.6458053588867	1196.041748046875	-808.6148071289065	-187.3002624511719	1108.278686523438	-893.881286621094	-407.8934326171876	902.609558105469	-895.585876464844	-81.80118560791017	969.7811279296877	-893.4290161132815	-111.8590927124024	1052.685913085938	-1062.168823242188	-226.9923248291016	992.6402587890627	-1210.886596679688	-245.0900268554688	947.4591064453127	-1211.994506835938	-277.6776428222657	973.804382324219	-1255.668579101563	-319.3040161132813	950.4439697265627	-1282.42626953125	-390.6749877929689	974.851013183594	-1228.351684570313	-426.1996154785157	781.9851074218752	-1100.287841796875	-437.9852600097657	731.4457397460939	-1156.204223632813	-394.6263427734376	740.0106201171876	-1062.869873046875	-98.33036041259768	1042.043334960938	-724.5839233398439	-207.506820678711	960.354431152344	-549.3555297851564	-202.1184997558594	911.887145996094	-563.7181396484376	-238.4758758544922	902.9777832031252	-519.2036743164064	-271.2483520507813	866.6238403320315	-504.6580810546876	-345.1612854003907	918.684753417969	-531.8237915039064	-457.0675354003907	773.017761230469	-666.0212402343751	-416.7325134277345	755.5665283203126	-712.2297363281251	-444.4123840332032	705.4223632812501	-626.9140014648439	-379.2870178222657	678.5083618164064	-996.5908813476565	-390.5611572265626	691.3155517578126	-781.3655395507815	-506.8629455566407	825.7170410156252	-897.8996582031252	-536.3325195312501	813.251892089844	-925.9895629882815	-537.8336791992189	812.8565673828127	-869.9068603515627	-448.4622192382814	580.5991821289064	-1108.228149414063	-363.8591308593751	573.4189453125001	-1120.93212890625	-338.4802856445313	611.6650390625001	-1106.48779296875	-332.7733764648438	522.1833496093751	-1127.552856445313	-181.9660949707032	446.8420410156251	-1140.193359375	-159.0711212158203	417.6367797851564	-1034.978149414063	-213.9961547851563	262.8306274414063	-1105.842529296875	-285.6737365722657	254.2536163330079	-1165.035034179688	-252.4952850341797	235.5436553955079	-1142.514892578125	-284.6934204101563	160.8724212646485	-1115.09423828125	-385.6687316894532	102.8091278076172	-1154.759033203125	-338.0662536621094	98.83013916015628	-1076.929565429688	-448.1649780273439	55.45405197143556	-1115.578491210938	-231.761215209961	56.77561950683595	-1120.041259765625	-229.8992614746094	58.62410354614259	-1164.811401367188	-279.3242187500001	38.36725616455079	-1215.339721679688	-398.1890563964845	557.8178710937501	-680.3980712890626	-331.9837646484376	563.0195312500001	-673.5082397460939	-313.9349975585938	590.0725097656251	-681.4180908203126	-278.8039245605469	495.2283935546876	-672.3745117187501	-191.8616638183594	437.1701660156251	-666.0920410156251	-168.0271911621094	418.048065185547	-776.218933105469	-211.2812652587891	280.8928527832032	-672.7440185546876	-320.5398254394532	247.0048980712891	-658.9439697265626	-278.0586547851563	226.3216247558594	-661.5819091796876	-279.5999755859376	174.3269958496094	-688.3261108398439	-380.8229980468751	93.62668609619142	-673.5260009765626	-346.3955993652344	99.93370056152347	-753.6135253906251	-444.2938842773439	50.43588256835939	-722.6061401367189	-225.7279968261719	51.9675636291504	-712.1967163085939	-229.1162872314454	56.59965133666994	-661.0565795898439	-275.5502929687501	37.21508026123048	-614.5531616210939	-4216.697265625001	853.099792480469	-3944.661132812501	
638	3.185	52.68329238891603	1251.845825195313	-882.1992187500002	-126.2115631103516	1196.426025390625	-962.3166503906252	-107.680892944336	1196.093505859375	-808.5567626953127	-187.3051147460938	1108.250366210938	-893.8813476562502	-407.9149169921876	902.329040527344	-895.5897216796877	-81.85040283203126	969.768249511719	-893.3913574218752	-111.9092712402344	1052.632446289063	-1062.151733398438	-227.0516967773438	992.5040283203127	-1210.896240234375	-245.1203308105469	947.3781738281252	-1211.942993164063	-277.6892395019532	973.6978759765627	-1255.664306640625	-319.2570495605469	950.3206787109377	-1282.425903320313	-390.6883850097657	974.6546020507815	-1228.312255859375	-426.0632629394532	781.8414306640627	-1100.253662109375	-437.9254455566407	731.2555541992189	-1156.106567382813	-394.5300903320314	739.9062500000001	-1062.744873046875	-98.29203796386722	1042.021728515625	-724.5892333984376	-207.2163696289063	960.2902832031252	-549.3293457031251	-201.9363861083985	911.8003540039065	-563.6560668945314	-238.1128082275391	902.7678833007815	-519.1773681640626	-271.0774841308594	866.4267578125002	-504.4790039062501	-345.0411071777344	918.4815673828127	-531.6968994140626	-456.8915405273439	772.854431152344	-665.9218139648439	-416.434539794922	755.4738769531251	-712.1614990234376	-444.1175537109376	705.1095581054689	-626.8297729492189	-379.4025268554688	678.2900390625001	-996.4241943359377	-390.4508666992189	691.2263793945314	-781.3895263671877	-506.7566223144532	825.6566162109377	-897.8545532226565	-536.1591796875001	813.0815429687502	-925.9221191406252	-537.7338256835939	812.7008056640627	-869.8586425781252	-448.3378906250001	580.4626464843751	-1108.177734375	-363.7255859375001	573.3842163085939	-1120.905029296875	-338.3118896484376	611.5540161132814	-1106.453125	-332.6348266601563	522.0534057617189	-1127.521240234375	-181.8604888916016	446.7644653320314	-1140.169677734375	-158.9730529785157	417.5410156250001	-1034.9912109375	-213.8970031738282	262.8081970214844	-1105.849731445313	-285.6106262207032	254.2557373046876	-1164.925170898438	-252.3619995117188	235.4941101074219	-1142.57421875	-284.6456298828126	160.8669128417969	-1115.049072265625	-385.6805114746095	102.8011474609375	-1154.739379882813	-338.0685729980469	98.75234985351565	-1076.901000976563	-448.1937866210939	55.50319671630861	-1115.542602539063	-231.7474822998047	56.75996398925783	-1120.031005859375	-229.9156188964844	58.71249771118165	-1164.808715820313	-279.3353576660157	38.38076782226563	-1215.3359375	-398.1329040527345	557.6409301757814	-680.4760742187501	-331.7438049316407	562.8834228515626	-673.5382080078126	-313.7361450195313	589.9735107421876	-681.3678588867189	-278.5645446777344	495.0346069335939	-672.3699951171876	-191.5873260498047	436.9263916015626	-666.1098632812501	-167.907455444336	417.932342529297	-776.1943359375002	-211.1685791015626	280.7447509765626	-672.6953735351564	-320.4851989746094	246.993148803711	-658.9533691406251	-277.9324645996094	226.2929229736329	-661.6486206054689	-279.5611572265626	174.2835388183594	-688.3422241210939	-380.7863464355469	93.62498474121095	-673.5247192382814	-346.3960876464844	99.93928527832034	-753.6159667968751	-444.2658081054689	50.43029022216798	-722.6142578125001	-225.6828613281251	51.94261932373048	-712.2030029296876	-229.1213378906251	56.59472656250001	-661.0257568359376	-275.4971923828126	37.23389053344727	-614.5110473632814	-4216.745605468751	853.1193847656252	-3944.634765625001	
639	3.19	52.85255432128908	1251.6044921875	-881.9545898437502	-126.227897644043	1196.633666992188	-962.235534667969	-107.6937561035157	1196.131469726563	-808.5367431640627	-187.3304443359375	1108.21044921875	-893.8105468750002	-407.7593994140626	902.3413085937502	-895.477722167969	-81.76617431640626	969.8418579101565	-893.3919677734377	-111.8963165283203	1052.615112304688	-1062.133178710938	-227.0306396484376	992.4546508789065	-1210.884521484375	-245.1417388916016	947.296813964844	-1211.94677734375	-277.3032836914063	973.3682861328127	-1255.561401367188	-319.2547607421876	950.2033691406252	-1282.481201171875	-390.6209106445314	974.4661865234377	-1228.326049804688	-425.9558410644532	781.7041625976565	-1100.232055664063	-437.7837524414064	731.0588989257814	-1156.088134765625	-394.3948669433595	739.8112182617189	-1062.673461914063	-98.21534729003909	1041.979736328125	-724.5588989257814	-206.9713134765626	960.1353759765627	-549.2899780273439	-201.7561798095704	911.4984130859377	-563.6116333007814	-238.0256805419922	902.6323852539065	-519.0814208984376	-270.8703918457032	866.090270996094	-504.3763122558595	-344.8767395019532	918.2203369140627	-531.5603637695314	-456.6837768554689	772.7083740234377	-665.7907104492189	-416.3685607910157	755.1547241210939	-712.0261840820314	-443.8576660156251	704.8590698242189	-626.7575073242189	-379.3029479980469	678.1377563476564	-996.3477172851565	-390.3452758789064	691.0237426757814	-781.426940917969	-506.690155029297	825.613952636719	-897.7548828125002	-536.1469116210939	812.9724731445315	-925.8682250976565	-537.7098388671876	812.5955200195315	-869.661804199219	-448.2295532226564	580.3899536132814	-1108.202392578125	-363.5970764160157	573.2779541015626	-1120.858520507813	-338.0157165527344	611.2776489257814	-1106.417236328125	-332.4809875488282	521.9576416015626	-1127.4560546875	-181.7909545898438	446.6630249023439	-1140.198486328125	-158.9219970703125	417.4520263671876	-1034.9404296875	-213.8653717041016	262.7871093750001	-1105.875122070313	-285.5270385742188	254.2642517089844	-1164.960327148438	-252.2810974121094	235.5024566650391	-1142.525634765625	-284.6459045410157	160.8088989257813	-1115.069458007813	-385.6174316406251	102.8266220092774	-1154.724853515625	-338.0527648925782	98.7881774902344	-1076.911499023438	-448.2017517089845	55.49485015869142	-1115.540649414063	-231.6749572753907	56.73030090332033	-1119.968017578125	-229.8817901611329	58.6250343322754	-1164.811645507813	-279.3096008300782	38.38180160522462	-1215.295288085938	-397.9878845214845	557.4628906250001	-680.3968505859376	-331.5219726562501	562.8448486328126	-673.6032104492189	-313.6468811035157	589.8764648437501	-681.2958374023439	-278.4215393066407	494.8390502929689	-672.2965698242189	-191.4113159179688	436.8301696777345	-666.0804443359376	-167.6627349853516	417.8243713378907	-776.2214965820315	-211.142318725586	280.6678161621094	-672.6748657226564	-320.4115600585938	246.9670867919922	-658.9633789062501	-277.8648986816407	226.2205657958985	-661.6173095703126	-279.5210266113282	174.2225952148438	-688.2621459960939	-380.7821044921876	93.62808227539064	-673.5378417968751	-346.4059448242188	99.91181945800784	-753.6030883789064	-444.2915344238282	50.43569183349611	-722.6021728515626	-225.7460479736329	51.94181060791017	-712.2012939453126	-229.1282348632813	56.57143020629884	-661.0360107421876	-275.5125122070313	37.28275299072266	-614.5792236328126	-4216.773925781251	853.1228027343752	-3944.628417968751	
